<?xml version="1.0" standalone="no"?>
<!DOCTYPE svg PUBLIC "-//W3C//DTD SVG 20010904//EN"
 "http://www.w3.org/TR/2001/REC-SVG-20010904/DTD/svg10.dtd">
<svg version="1.0" xmlns="http://www.w3.org/2000/svg"
 width="250.000000pt" height="250.000000pt" viewBox="0 0 250.000000 250.000000"
 preserveAspectRatio="xMidYMid meet">
<metadata>
Created by potrace 1.11, written by Peter Selinger 2001-2013
</metadata>
<g transform="translate(0.000000,250.000000) scale(0.100000,-0.100000)"
fill="#000000" stroke="none">
<path d="M1055 2183 c-138 -16 -203 -35 -293 -83 -174 -92 -272 -250 -275
-440 -1 -113 7 -162 41 -235 37 -77 122 -162 210 -208 83 -43 268 -100 402
-123 14 -3 32 -7 40 -10 8 -3 26 -8 40 -10 55 -11 187 -56 225 -77 53 -30 77
-77 72 -140 -8 -88 -68 -138 -170 -143 -124 -5 -222 29 -281 98 -31 36 -42 60
-61 133 -2 6 -98 9 -266 9 -145 -1 -267 -2 -270 -3 -16 -3 39 -179 78 -251
138 -252 417 -382 802 -375 480 9 748 271 676 660 -14 72 -53 144 -112 206
-105 111 -189 148 -530 234 -117 30 -238 65 -270 79 -103 43 -139 103 -114
188 23 75 88 109 203 104 132 -5 221 -66 269 -183 l21 -53 259 0 259 0 -5 29
c-24 135 -100 277 -204 381 -104 102 -235 175 -354 195 -17 4 -48 10 -67 14
-19 4 -62 9 -95 10 -33 1 -76 3 -95 4 -19 1 -80 -3 -135 -10z"/>
</g>
</svg>
